<svg xmlns="http://www.w3.org/2000/svg" viewBox="0 0 24 24"><path d="M22.15527,10.47266v-.00049l-8.93652-8.123a1.80315,1.80315,0,0,0-2.4375-.00049l-8.8591,8.05363a1.90654,1.90654,0,0,0-.62351,1.82237,1.80453,1.80453,0,0,0,1.76581,1.40086h.439a.31259.31259,0,0,1,.312.312v6.37256a1.812,1.812,0,0,0,1.812,1.812H8.75a1,1,0,0,0,1-1V17.45765a2.34246,2.34246,0,0,1,2.014-2.37131,2.2527,2.2527,0,0,1,2.486,2.23788v3.79785a1,1,0,0,0,1,1h3.12207a1.8125,1.8125,0,0,0,1.8125-1.8125V13.9375a.313.313,0,0,1,.3125-.312h.43848a1.81222,1.81222,0,0,0,1.21972-3.15283Z" data-name="Layer 2"/></svg>